# xmcd
#
# Track frame offsets: 
#        150
#        18077
#        36280
#        49484
#        66283
#        85586
#        104885
#        117288
#        134612
#        149501
#        164208
#        181391
#        202449
#        218203
#        230428
#        247337
#        263339
#        277154
#        293206
#        310359
#        326950
#        348245
#
# Disc length: 4799 seconds
#
# Revision: 0
# Processed by: cddbd v1.5.1PL2 Copyright (c) Steve Scherf et al.
# Submitted via: ExactAudioCopy v0.95b4
#
DISCID=7412bd16
DTITLE=Moleca 100 Vergonha - Coisa de Cinema
DYEAR=2005
DGENRE=Forró
TTITLE0=A Voz do Coração
TTITLE1=Bateu Saudade
TTITLE2=Coração Blindado
TTITLE3=24 Horas
TTITLE4=Não Sou Feliz Mais
TTITLE5=Coisa de Cinema
TTITLE6=My Love My Love
TTITLE7=O Relógio
TTITLE8=Não Dá Mais
TTITLE9=Fim da Linha
TTITLE10=Carametade
TTITLE11=Dona Flor
TTITLE12=Você Pra Mim
TTITLE13=Liberta Meu Coração
TTITLE14=Sem Você Tudo É Solidão
TTITLE15=Difícil
TTITLE16=Prova de Amor
TTITLE17=Amanhecer
TTITLE18=Fui Eu
TTITLE19=Te Amo
TTITLE20=Pra Começar
TTITLE21=Eu Vou Te Amar
EXTD=
EXTT0=
EXTT1=
EXTT2=
EXTT3=
EXTT4=
EXTT5=
EXTT6=
EXTT7=
EXTT8=
EXTT9=
EXTT10=
EXTT11=
EXTT12=
EXTT13=
EXTT14=
EXTT15=
EXTT16=
EXTT17=
EXTT18=
EXTT19=
EXTT20=
EXTT21=
PLAYORDER=
